<mxGraphModel dx="0" dy="0" grid="1" gridSize="10" guides="1" tooltips="1" connect="1" arrows="1" fold="1" page="0" pageScale="1" background="none" math="0" shadow="0">
  <root>
    <mxCell id="0" />
    <mxCell id="1" parent="0" />
    <mxCell id="node15" parent="1" vertex="1" value="&lt;p style=&quot;margin:0px;margin-top:4px;text-align:center;&quot;&gt;&lt;b&gt;@types/.../index.d.ts&lt;/b&gt;&lt;/p&gt;&lt;hr size=&quot;1&quot;/&gt;" style="verticalAlign=top;align=left;overflow=fill;fontSize=14;fontFamily=Helvetica;html=1;rounded=0;shadow=0;comic=0;labelBackgroundColor=none;strokeWidth=1;">
      <mxGeometry x="-484" y="81" width="168" height="33" as="geometry" />
    </mxCell>
    <mxCell id="node12" parent="1" vertex="1" value="&lt;p style=&quot;margin:0px;margin-top:4px;text-align:center;&quot;&gt;&lt;b&gt;backend/app.js&lt;/b&gt;&lt;/p&gt;&lt;hr size=&quot;1&quot;/&gt;&lt;p style=&quot;margin:0 0 0 4px;line-height:1.6;&quot;&gt; bodyParser: &lt;br/&gt; changeLogRouter: &lt;br/&gt; config: &lt;br/&gt; cors: &lt;br/&gt; createError: &lt;br/&gt; express: &lt;br/&gt; mongoose: &lt;br/&gt; organisationsRouter: &lt;br/&gt; technologiesRouter: &lt;br/&gt; usersRouter: &lt;/p&gt;" style="verticalAlign=top;align=left;overflow=fill;fontSize=14;fontFamily=Helvetica;html=1;rounded=0;shadow=0;comic=0;labelBackgroundColor=none;strokeWidth=1;">
      <mxGeometry x="-480" y="243" width="161" height="254" as="geometry" />
    </mxCell>
    <mxCell id="node13" parent="1" vertex="1" value="&lt;p style=&quot;margin:0px;margin-top:4px;text-align:center;&quot;&gt;&lt;b&gt;bcrypt/bcrypt.js&lt;/b&gt;&lt;/p&gt;&lt;hr size=&quot;1&quot;/&gt;" style="verticalAlign=top;align=left;overflow=fill;fontSize=14;fontFamily=Helvetica;html=1;rounded=0;shadow=0;comic=0;labelBackgroundColor=none;strokeWidth=1;">
      <mxGeometry x="463" y="662" width="139" height="33" as="geometry" />
    </mxCell>
    <mxCell id="node16" parent="1" vertex="1" value="&lt;p style=&quot;margin:0px;margin-top:4px;text-align:center;&quot;&gt;&lt;b&gt;body-parser/index.js&lt;/b&gt;&lt;/p&gt;&lt;hr size=&quot;1&quot;/&gt;" style="verticalAlign=top;align=left;overflow=fill;fontSize=14;fontFamily=Helvetica;html=1;rounded=0;shadow=0;comic=0;labelBackgroundColor=none;strokeWidth=1;">
      <mxGeometry x="-732" y="355" width="172" height="33" as="geometry" />
    </mxCell>
    <mxCell id="node8" parent="1" vertex="1" value="&lt;p style=&quot;margin:0px;margin-top:4px;text-align:center;&quot;&gt;&lt;b&gt;cors/.../index.js&lt;/b&gt;&lt;/p&gt;&lt;hr size=&quot;1&quot;/&gt;" style="verticalAlign=top;align=left;overflow=fill;fontSize=14;fontFamily=Helvetica;html=1;rounded=0;shadow=0;comic=0;labelBackgroundColor=none;strokeWidth=1;">
      <mxGeometry x="-693" y="409" width="133" height="33" as="geometry" />
    </mxCell>
    <mxCell id="node1" parent="1" vertex="1" value="&lt;p style=&quot;margin:0px;margin-top:4px;text-align:center;&quot;&gt;&lt;b&gt;dotenv/.../main.d.ts&lt;/b&gt;&lt;/p&gt;&lt;hr size=&quot;1&quot;/&gt;&lt;p style=&quot;margin:0 0 0 4px;line-height:1.6;&quot;&gt; config: &lt;/p&gt;" style="verticalAlign=top;align=left;overflow=fill;fontSize=14;fontFamily=Helvetica;html=1;rounded=0;shadow=0;comic=0;labelBackgroundColor=none;strokeWidth=1;">
      <mxGeometry x="-480" y="693" width="164" height="60" as="geometry" />
    </mxCell>
    <mxCell id="node2" parent="1" vertex="1" value="&lt;p style=&quot;margin:0px;margin-top:4px;text-align:center;&quot;&gt;&lt;b&gt;http-errors/index.js&lt;/b&gt;&lt;/p&gt;&lt;hr size=&quot;1&quot;/&gt;" style="verticalAlign=top;align=left;overflow=fill;fontSize=14;fontFamily=Helvetica;html=1;rounded=0;shadow=0;comic=0;labelBackgroundColor=none;strokeWidth=1;">
      <mxGeometry x="-722" y="300" width="162" height="33" as="geometry" />
    </mxCell>
    <mxCell id="node5" parent="1" vertex="1" value="&lt;p style=&quot;margin:0px;margin-top:4px;text-align:center;&quot;&gt;&lt;b&gt;jsonwebtoken/index.js&lt;/b&gt;&lt;/p&gt;&lt;hr size=&quot;1&quot;/&gt;" style="verticalAlign=top;align=left;overflow=fill;fontSize=14;fontFamily=Helvetica;html=1;rounded=0;shadow=0;comic=0;labelBackgroundColor=none;strokeWidth=1;">
      <mxGeometry x="-194" y="862" width="183" height="33" as="geometry" />
    </mxCell>
    <mxCell id="node0" parent="1" vertex="1" value="&lt;p style=&quot;margin:0px;margin-top:4px;text-align:center;&quot;&gt;&lt;b&gt;middleware/authMiddleware.js&lt;/b&gt;&lt;/p&gt;&lt;hr size=&quot;1&quot;/&gt;&lt;p style=&quot;margin:0 0 0 4px;line-height:1.6;&quot;&gt; config: &lt;br/&gt; jwt: &lt;/p&gt;" style="verticalAlign=top;align=left;overflow=fill;fontSize=14;fontFamily=Helvetica;html=1;rounded=0;shadow=0;comic=0;labelBackgroundColor=none;strokeWidth=1;">
      <mxGeometry x="134" y="839" width="244" height="84" as="geometry" />
    </mxCell>
    <mxCell id="node14" parent="1" vertex="1" value="&lt;p style=&quot;margin:0px;margin-top:4px;text-align:center;&quot;&gt;&lt;b&gt;models/changelog.js&lt;/b&gt;&lt;/p&gt;&lt;hr size=&quot;1&quot;/&gt;&lt;p style=&quot;margin:0 0 0 4px;line-height:1.6;&quot;&gt; mongoose: &lt;/p&gt;" style="verticalAlign=top;align=left;overflow=fill;fontSize=14;fontFamily=Helvetica;html=1;rounded=0;shadow=0;comic=0;labelBackgroundColor=none;strokeWidth=1;">
      <mxGeometry x="176" y="114" width="176" height="60" as="geometry" />
    </mxCell>
    <mxCell id="node6" parent="1" vertex="1" value="&lt;p style=&quot;margin:0px;margin-top:4px;text-align:center;&quot;&gt;&lt;b&gt;models/organisation.js&lt;/b&gt;&lt;/p&gt;&lt;hr size=&quot;1&quot;/&gt;&lt;p style=&quot;margin:0 0 0 4px;line-height:1.6;&quot;&gt; mongoose: &lt;/p&gt;" style="verticalAlign=top;align=left;overflow=fill;fontSize=14;fontFamily=Helvetica;html=1;rounded=0;shadow=0;comic=0;labelBackgroundColor=none;strokeWidth=1;">
      <mxGeometry x="170" y="276" width="189" height="60" as="geometry" />
    </mxCell>
    <mxCell id="node17" parent="1" vertex="1" value="&lt;p style=&quot;margin:0px;margin-top:4px;text-align:center;&quot;&gt;&lt;b&gt;models/technology.js&lt;/b&gt;&lt;/p&gt;&lt;hr size=&quot;1&quot;/&gt;&lt;p style=&quot;margin:0 0 0 4px;line-height:1.6;&quot;&gt; mongoose: &lt;/p&gt;" style="verticalAlign=top;align=left;overflow=fill;fontSize=14;fontFamily=Helvetica;html=1;rounded=0;shadow=0;comic=0;labelBackgroundColor=none;strokeWidth=1;">
      <mxGeometry x="179" y="445" width="180" height="60" as="geometry" />
    </mxCell>
    <mxCell id="node11" parent="1" vertex="1" value="&lt;p style=&quot;margin:0px;margin-top:4px;text-align:center;&quot;&gt;&lt;b&gt;models/user.js&lt;/b&gt;&lt;/p&gt;&lt;hr size=&quot;1&quot;/&gt;&lt;p style=&quot;margin:0 0 0 4px;line-height:1.6;&quot;&gt; bcrypt: &lt;br/&gt; mongoose: &lt;/p&gt;" style="verticalAlign=top;align=left;overflow=fill;fontSize=14;fontFamily=Helvetica;html=1;rounded=0;shadow=0;comic=0;labelBackgroundColor=none;strokeWidth=1;">
      <mxGeometry x="226" y="638" width="133" height="84" as="geometry" />
    </mxCell>
    <mxCell id="node9" parent="1" vertex="1" value="&lt;p style=&quot;margin:0px;margin-top:4px;text-align:center;&quot;&gt;&lt;b&gt;mongoose&lt;/b&gt;&lt;/p&gt;&lt;hr size=&quot;1&quot;/&gt;" style="verticalAlign=top;align=left;overflow=fill;fontSize=14;fontFamily=Helvetica;html=1;rounded=0;shadow=0;comic=0;labelBackgroundColor=none;strokeWidth=1;">
      <mxGeometry x="463" y="355" width="89" height="33" as="geometry" />
    </mxCell>
    <mxCell id="node4" parent="1" vertex="1" value="&lt;p style=&quot;margin:0px;margin-top:4px;text-align:center;&quot;&gt;&lt;b&gt;routes/changelog.js&lt;/b&gt;&lt;/p&gt;&lt;hr size=&quot;1&quot;/&gt;&lt;p style=&quot;margin:0 0 0 4px;line-height:1.6;&quot;&gt; ChangeLog: &lt;br/&gt; config: &lt;br/&gt; express: &lt;br/&gt; verify: &lt;/p&gt;" style="verticalAlign=top;align=left;overflow=fill;fontSize=14;fontFamily=Helvetica;html=1;rounded=0;shadow=0;comic=0;labelBackgroundColor=none;strokeWidth=1;">
      <mxGeometry x="-159" y="81" width="168" height="132" as="geometry" />
    </mxCell>
    <mxCell id="node10" parent="1" vertex="1" value="&lt;p style=&quot;margin:0px;margin-top:4px;text-align:center;&quot;&gt;&lt;b&gt;routes/organisation.js&lt;/b&gt;&lt;/p&gt;&lt;hr size=&quot;1&quot;/&gt;&lt;p style=&quot;margin:0 0 0 4px;line-height:1.6;&quot;&gt; Organisation: &lt;br/&gt; config: &lt;br/&gt; express: &lt;br/&gt; verify: &lt;/p&gt;" style="verticalAlign=top;align=left;overflow=fill;fontSize=14;fontFamily=Helvetica;html=1;rounded=0;shadow=0;comic=0;labelBackgroundColor=none;strokeWidth=1;">
      <mxGeometry x="-165" y="241" width="181" height="132" as="geometry" />
    </mxCell>
    <mxCell id="node3" parent="1" vertex="1" value="&lt;p style=&quot;margin:0px;margin-top:4px;text-align:center;&quot;&gt;&lt;b&gt;routes/technology.js&lt;/b&gt;&lt;/p&gt;&lt;hr size=&quot;1&quot;/&gt;&lt;p style=&quot;margin:0 0 0 4px;line-height:1.6;&quot;&gt; ChangeLog: &lt;br/&gt; Technology: &lt;br/&gt; config: &lt;br/&gt; express: &lt;br/&gt; verify: &lt;/p&gt;" style="verticalAlign=top;align=left;overflow=fill;fontSize=14;fontFamily=Helvetica;html=1;rounded=0;shadow=0;comic=0;labelBackgroundColor=none;strokeWidth=1;">
      <mxGeometry x="-165" y="401" width="172" height="144" as="geometry" />
    </mxCell>
    <mxCell id="node7" parent="1" vertex="1" value="&lt;p style=&quot;margin:0px;margin-top:4px;text-align:center;&quot;&gt;&lt;b&gt;routes/user.js&lt;/b&gt;&lt;/p&gt;&lt;hr size=&quot;1&quot;/&gt;&lt;p style=&quot;margin:0 0 0 4px;line-height:1.6;&quot;&gt; Organisation: &lt;br/&gt; User: &lt;br/&gt; express: &lt;br/&gt; jwt: &lt;br/&gt; verify: &lt;/p&gt;" style="verticalAlign=top;align=left;overflow=fill;fontSize=14;fontFamily=Helvetica;html=1;rounded=0;shadow=0;comic=0;labelBackgroundColor=none;strokeWidth=1;">
      <mxGeometry x="-165" y="605" width="125" height="144" as="geometry" />
    </mxCell>
    <mxCell id="edge4" edge="1" value="" parent="1" source="node12" target="node15" style="html=1;rounded=1;;dashed=0;startArrow=classic;startSize=12;endArrow=none;strokeColor=#595959;exitX=0.500;exitY=0.000;exitDx=0;exitDy=0;entryX=0.500;entryY=1.001;entryDx=0;entryDy=0;">
      <mxGeometry width="50" height="50" relative="1" as="geometry">
        <Array as="points" />
      </mxGeometry>
    </mxCell>
    <mxCell id="edge34" edge="1" value="" parent="1" source="node12" target="node16" style="html=1;rounded=1;;dashed=0;startArrow=classic;startSize=12;endArrow=none;strokeColor=#595959;exitX=0.000;exitY=0.500;exitDx=0;exitDy=0;entryX=1.000;entryY=0.500;entryDx=0;entryDy=0;">
      <mxGeometry width="50" height="50" relative="1" as="geometry">
        <Array as="points" />
      </mxGeometry>
    </mxCell>
    <mxCell id="edge21" edge="1" value="" parent="1" source="node12" target="node8" style="html=1;rounded=1;;dashed=0;startArrow=classic;startSize=12;endArrow=none;strokeColor=#595959;exitX=0.000;exitY=0.576;exitDx=0;exitDy=0;entryX=0.988;entryY=0.000;entryDx=0;entryDy=0;">
      <mxGeometry width="50" height="50" relative="1" as="geometry">
        <Array as="points" />
      </mxGeometry>
    </mxCell>
    <mxCell id="edge7" edge="1" value="" parent="1" source="node12" target="node1" style="html=1;rounded=1;;dashed=0;startArrow=classic;startSize=12;endArrow=none;strokeColor=#595959;exitX=0.504;exitY=1.000;exitDx=0;exitDy=0;entryX=0.499;entryY=0.000;entryDx=0;entryDy=0;">
      <mxGeometry width="50" height="50" relative="1" as="geometry">
        <Array as="points" />
      </mxGeometry>
    </mxCell>
    <mxCell id="edge22" edge="1" value="" parent="1" source="node12" target="node2" style="html=1;rounded=1;;dashed=0;startArrow=classic;startSize=12;endArrow=none;strokeColor=#595959;exitX=0.000;exitY=0.431;exitDx=0;exitDy=0;entryX=0.918;entryY=1.000;entryDx=0;entryDy=0;">
      <mxGeometry width="50" height="50" relative="1" as="geometry">
        <Array as="points">
          <mxPoint x="-535" y="341" />
          <mxPoint x="-550" y="337" />
        </Array>
      </mxGeometry>
    </mxCell>
    <mxCell id="edge2" edge="1" value="" parent="1" source="node12" target="node9" style="html=1;rounded=1;;dashed=0;startArrow=classic;startSize=12;endArrow=none;strokeColor=#595959;exitX=1.000;exitY=0.513;exitDx=0;exitDy=0;entryX=0.000;entryY=0.611;entryDx=0;entryDy=0;">
      <mxGeometry width="50" height="50" relative="1" as="geometry">
        <Array as="points">
          <mxPoint x="-1" y="386" />
          <mxPoint x="262" y="388" />
          <mxPoint x="282" y="387" />
        </Array>
      </mxGeometry>
    </mxCell>
    <mxCell id="edge32" edge="1" value="" parent="1" source="node12" target="node4" style="html=1;rounded=1;;dashed=0;startArrow=classic;startSize=12;endArrow=none;strokeColor=#595959;exitX=1.000;exitY=0.277;exitDx=0;exitDy=0;entryX=0.000;entryY=0.984;entryDx=0;entryDy=0;">
      <mxGeometry width="50" height="50" relative="1" as="geometry">
        <Array as="points" />
      </mxGeometry>
    </mxCell>
    <mxCell id="edge18" edge="1" value="" parent="1" source="node12" target="node10" style="html=1;rounded=1;;dashed=0;startArrow=classic;startSize=12;endArrow=none;strokeColor=#595959;exitX=1.000;exitY=0.433;exitDx=0;exitDy=0;entryX=0.000;entryY=0.656;entryDx=0;entryDy=0;">
      <mxGeometry width="50" height="50" relative="1" as="geometry">
        <Array as="points" />
      </mxGeometry>
    </mxCell>
    <mxCell id="edge33" edge="1" value="" parent="1" source="node12" target="node3" style="html=1;rounded=1;;dashed=0;startArrow=classic;startSize=12;endArrow=none;strokeColor=#595959;exitX=1.000;exitY=0.602;exitDx=0;exitDy=0;entryX=0.000;entryY=0.309;entryDx=0;entryDy=0;">
      <mxGeometry width="50" height="50" relative="1" as="geometry">
        <Array as="points" />
      </mxGeometry>
    </mxCell>
    <mxCell id="edge6" edge="1" value="" parent="1" source="node12" target="node7" style="html=1;rounded=1;;dashed=0;startArrow=classic;startSize=12;endArrow=none;strokeColor=#595959;exitX=1.000;exitY=0.827;exitDx=0;exitDy=0;entryX=0.000;entryY=0.052;entryDx=0;entryDy=0;">
      <mxGeometry width="50" height="50" relative="1" as="geometry">
        <Array as="points" />
      </mxGeometry>
    </mxCell>
    <mxCell id="edge10" edge="1" value="" parent="1" source="node0" target="node1" style="html=1;rounded=1;;dashed=0;startArrow=classic;startSize=12;endArrow=none;strokeColor=#595959;exitX=0.000;exitY=0.042;exitDx=0;exitDy=0;entryX=1.000;entryY=0.779;entryDx=0;entryDy=0;">
      <mxGeometry width="50" height="50" relative="1" as="geometry">
        <Array as="points">
          <mxPoint x="-63" y="784" />
          <mxPoint x="-77" y="781" />
          <mxPoint x="-149" y="768" />
        </Array>
      </mxGeometry>
    </mxCell>
    <mxCell id="edge11" edge="1" value="" parent="1" source="node0" target="node5" style="html=1;rounded=1;;dashed=0;startArrow=classic;startSize=12;endArrow=none;strokeColor=#595959;exitX=0.000;exitY=0.500;exitDx=0;exitDy=0;entryX=1.000;entryY=0.500;entryDx=0;entryDy=0;">
      <mxGeometry width="50" height="50" relative="1" as="geometry">
        <Array as="points" />
      </mxGeometry>
    </mxCell>
    <mxCell id="edge27" edge="1" value="" parent="1" source="node14" target="node9" style="html=1;rounded=1;;dashed=0;startArrow=classic;startSize=12;endArrow=none;strokeColor=#595959;exitX=0.673;exitY=1.000;exitDx=0;exitDy=0;entryX=0.316;entryY=0.000;entryDx=0;entryDy=0;">
      <mxGeometry width="50" height="50" relative="1" as="geometry">
        <Array as="points">
          <mxPoint x="356" y="226" />
          <mxPoint x="363" y="233" />
        </Array>
      </mxGeometry>
    </mxCell>
    <mxCell id="edge0" edge="1" value="" parent="1" source="node6" target="node9" style="html=1;rounded=1;;dashed=0;startArrow=classic;startSize=12;endArrow=none;strokeColor=#595959;exitX=1.000;exitY=0.959;exitDx=0;exitDy=0;entryX=0.000;entryY=0.109;entryDx=0;entryDy=0;">
      <mxGeometry width="50" height="50" relative="1" as="geometry">
        <Array as="points" />
      </mxGeometry>
    </mxCell>
    <mxCell id="edge29" edge="1" value="" parent="1" source="node17" target="node9" style="html=1;rounded=1;;dashed=0;startArrow=classic;startSize=12;endArrow=none;strokeColor=#595959;exitX=0.873;exitY=0.000;exitDx=0;exitDy=0;entryX=0.102;entryY=1.001;entryDx=0;entryDy=0;">
      <mxGeometry width="50" height="50" relative="1" as="geometry">
        <Array as="points" />
      </mxGeometry>
    </mxCell>
    <mxCell id="edge12" edge="1" value="" parent="1" source="node11" target="node13" style="html=1;rounded=1;;dashed=0;startArrow=classic;startSize=12;endArrow=none;strokeColor=#595959;exitX=1.000;exitY=0.500;exitDx=0;exitDy=0;entryX=0.000;entryY=0.500;entryDx=0;entryDy=0;">
      <mxGeometry width="50" height="50" relative="1" as="geometry">
        <Array as="points" />
      </mxGeometry>
    </mxCell>
    <mxCell id="edge31" edge="1" value="" parent="1" source="node11" target="node9" style="html=1;rounded=1;;dashed=0;startArrow=classic;startSize=12;endArrow=none;strokeColor=#595959;exitX=0.705;exitY=0.000;exitDx=0;exitDy=0;entryX=0.378;entryY=0.999;entryDx=0;entryDy=0;">
      <mxGeometry width="50" height="50" relative="1" as="geometry">
        <Array as="points" />
      </mxGeometry>
    </mxCell>
    <mxCell id="edge17" edge="1" value="" parent="1" source="node4" target="node15" style="html=1;rounded=1;;dashed=0;startArrow=classic;startSize=12;endArrow=none;strokeColor=#595959;exitX=0.000;exitY=0.404;exitDx=0;exitDy=0;entryX=1.000;entryY=0.879;entryDx=0;entryDy=0;">
      <mxGeometry width="50" height="50" relative="1" as="geometry">
        <Array as="points" />
      </mxGeometry>
    </mxCell>
    <mxCell id="edge23" edge="1" value="" parent="1" source="node4" target="node1" style="html=1;rounded=1;;dashed=0;startArrow=classic;startSize=12;endArrow=none;strokeColor=#595959;exitX=0.272;exitY=1.000;exitDx=0;exitDy=0;entryX=0.592;entryY=0.000;entryDx=0;entryDy=0;">
      <mxGeometry width="50" height="50" relative="1" as="geometry">
        <Array as="points">
          <mxPoint x="-147" y="258" />
          <mxPoint x="-155" y="270" />
        </Array>
      </mxGeometry>
    </mxCell>
    <mxCell id="edge8" edge="1" value="" parent="1" source="node4" target="node0" style="html=1;rounded=1;;dashed=0;startArrow=classic;startSize=12;endArrow=none;strokeColor=#595959;exitX=0.724;exitY=1.000;exitDx=0;exitDy=0;entryX=0.431;entryY=0.000;entryDx=0;entryDy=0;">
      <mxGeometry width="50" height="50" relative="1" as="geometry">
        <Array as="points">
          <mxPoint x="-13" y="241" />
          <mxPoint x="3" y="271" />
          <mxPoint x="10" y="287" />
          <mxPoint x="164" y="660" />
          <mxPoint x="171" y="675" />
          <mxPoint x="209" y="769" />
        </Array>
      </mxGeometry>
    </mxCell>
    <mxCell id="edge14" edge="1" value="" parent="1" source="node4" target="node14" style="html=1;rounded=1;;dashed=0;startArrow=classic;startSize=12;endArrow=none;strokeColor=#595959;exitX=1.000;exitY=0.500;exitDx=0;exitDy=0;entryX=0.000;entryY=0.500;entryDx=0;entryDy=0;">
      <mxGeometry width="50" height="50" relative="1" as="geometry">
        <Array as="points" />
      </mxGeometry>
    </mxCell>
    <mxCell id="edge16" edge="1" value="" parent="1" source="node10" target="node15" style="html=1;rounded=1;;dashed=0;startArrow=classic;startSize=12;endArrow=none;strokeColor=#595959;exitX=0.000;exitY=0.031;exitDx=0;exitDy=0;entryX=0.646;entryY=1.000;entryDx=0;entryDy=0;">
      <mxGeometry width="50" height="50" relative="1" as="geometry">
        <Array as="points" />
      </mxGeometry>
    </mxCell>
    <mxCell id="edge1" edge="1" value="" parent="1" source="node10" target="node1" style="html=1;rounded=1;;dashed=0;startArrow=classic;startSize=12;endArrow=none;strokeColor=#595959;exitX=0.240;exitY=1.000;exitDx=0;exitDy=0;entryX=0.632;entryY=0.000;entryDx=0;entryDy=0;">
      <mxGeometry width="50" height="50" relative="1" as="geometry">
        <Array as="points" />
      </mxGeometry>
    </mxCell>
    <mxCell id="edge3" edge="1" value="" parent="1" source="node10" target="node0" style="html=1;rounded=1;;dashed=0;startArrow=classic;startSize=12;endArrow=none;strokeColor=#595959;exitX=0.703;exitY=1.000;exitDx=0;exitDy=0;entryX=0.410;entryY=0.000;entryDx=0;entryDy=0;">
      <mxGeometry width="50" height="50" relative="1" as="geometry">
        <Array as="points">
          <mxPoint x="11" y="444" />
        </Array>
      </mxGeometry>
    </mxCell>
    <mxCell id="edge24" edge="1" value="" parent="1" source="node10" target="node6" style="html=1;rounded=1;;dashed=0;startArrow=classic;startSize=12;endArrow=none;strokeColor=#595959;exitX=1.000;exitY=0.505;exitDx=0;exitDy=0;entryX=0.000;entryY=0.489;entryDx=0;entryDy=0;">
      <mxGeometry width="50" height="50" relative="1" as="geometry">
        <Array as="points" />
      </mxGeometry>
    </mxCell>
    <mxCell id="edge13" edge="1" value="" parent="1" source="node3" target="node15" style="html=1;rounded=1;;dashed=0;startArrow=classic;startSize=12;endArrow=none;strokeColor=#595959;exitX=0.144;exitY=0.000;exitDx=0;exitDy=0;entryX=0.579;entryY=1.000;entryDx=0;entryDy=0;">
      <mxGeometry width="50" height="50" relative="1" as="geometry">
        <Array as="points">
          <mxPoint x="-379" y="120" />
        </Array>
      </mxGeometry>
    </mxCell>
    <mxCell id="edge19" edge="1" value="" parent="1" source="node3" target="node1" style="html=1;rounded=1;;dashed=0;startArrow=classic;startSize=12;endArrow=none;strokeColor=#595959;exitX=0.000;exitY=0.965;exitDx=0;exitDy=0;entryX=0.719;entryY=0.000;entryDx=0;entryDy=0;">
      <mxGeometry width="50" height="50" relative="1" as="geometry">
        <Array as="points" />
      </mxGeometry>
    </mxCell>
    <mxCell id="edge20" edge="1" value="" parent="1" source="node3" target="node0" style="html=1;rounded=1;;dashed=0;startArrow=classic;startSize=12;endArrow=none;strokeColor=#595959;exitX=0.847;exitY=1.000;exitDx=0;exitDy=0;entryX=0.368;entryY=0.000;entryDx=0;entryDy=0;">
      <mxGeometry width="50" height="50" relative="1" as="geometry">
        <Array as="points" />
      </mxGeometry>
    </mxCell>
    <mxCell id="edge15" edge="1" value="" parent="1" source="node3" target="node14" style="html=1;rounded=1;;dashed=0;startArrow=classic;startSize=12;endArrow=none;strokeColor=#595959;exitX=0.934;exitY=0.000;exitDx=0;exitDy=0;entryX=0.335;entryY=1.000;entryDx=0;entryDy=0;">
      <mxGeometry width="50" height="50" relative="1" as="geometry">
        <Array as="points" />
      </mxGeometry>
    </mxCell>
    <mxCell id="edge25" edge="1" value="" parent="1" source="node3" target="node17" style="html=1;rounded=1;;dashed=0;startArrow=classic;startSize=12;endArrow=none;strokeColor=#595959;exitX=1.000;exitY=0.499;exitDx=0;exitDy=0;entryX=0.000;entryY=0.490;entryDx=0;entryDy=0;">
      <mxGeometry width="50" height="50" relative="1" as="geometry">
        <Array as="points" />
      </mxGeometry>
    </mxCell>
    <mxCell id="edge5" edge="1" value="" parent="1" source="node7" target="node15" style="html=1;rounded=1;;dashed=0;startArrow=classic;startSize=12;endArrow=none;strokeColor=#595959;exitX=0.260;exitY=0.000;exitDx=0;exitDy=0;entryX=0.563;entryY=1.000;entryDx=0;entryDy=0;">
      <mxGeometry width="50" height="50" relative="1" as="geometry">
        <Array as="points">
          <mxPoint x="-218" y="402" />
          <mxPoint x="-223" y="390" />
          <mxPoint x="-249" y="327" />
          <mxPoint x="-262" y="301" />
          <mxPoint x="-276" y="276" />
        </Array>
      </mxGeometry>
    </mxCell>
    <mxCell id="edge26" edge="1" value="" parent="1" source="node7" target="node5" style="html=1;rounded=1;;dashed=0;startArrow=classic;startSize=12;endArrow=none;strokeColor=#595959;exitX=0.500;exitY=1.000;exitDx=0;exitDy=0;entryX=0.500;entryY=0.000;entryDx=0;entryDy=0;">
      <mxGeometry width="50" height="50" relative="1" as="geometry">
        <Array as="points" />
      </mxGeometry>
    </mxCell>
    <mxCell id="edge30" edge="1" value="" parent="1" source="node7" target="node0" style="html=1;rounded=1;;dashed=0;startArrow=classic;startSize=12;endArrow=none;strokeColor=#595959;exitX=1.000;exitY=0.743;exitDx=0;exitDy=0;entryX=0.214;entryY=0.000;entryDx=0;entryDy=0;">
      <mxGeometry width="50" height="50" relative="1" as="geometry">
        <Array as="points" />
      </mxGeometry>
    </mxCell>
    <mxCell id="edge9" edge="1" value="" parent="1" source="node7" target="node6" style="html=1;rounded=1;;dashed=0;startArrow=classic;startSize=12;endArrow=none;strokeColor=#595959;exitX=1.000;exitY=0.059;exitDx=0;exitDy=0;entryX=0.354;entryY=1.000;entryDx=0;entryDy=0;">
      <mxGeometry width="50" height="50" relative="1" as="geometry">
        <Array as="points" />
      </mxGeometry>
    </mxCell>
    <mxCell id="edge28" edge="1" value="" parent="1" source="node7" target="node11" style="html=1;rounded=1;;dashed=0;startArrow=classic;startSize=12;endArrow=none;strokeColor=#595959;exitX=1.000;exitY=0.500;exitDx=0;exitDy=0;entryX=0.000;entryY=0.500;entryDx=0;entryDy=0;">
      <mxGeometry width="50" height="50" relative="1" as="geometry">
        <Array as="points" />
      </mxGeometry>
    </mxCell>
  </root>
</mxGraphModel>